<svg width="32" height="32" viewBox="0 0 32 32" fill="none" xmlns="http://www.w3.org/2000/svg">
  <!-- Background circle with gradient -->
  <circle cx="16" cy="16" r="16" fill="url(#gradient)"/>
  
  <!-- Key icon -->
  <path d="M22 12C22 9.79086 20.2091 8 18 8C15.7909 8 14 9.79086 14 12C14 13.8638 15.2744 15.4299 17 15.874V20H15V22H17V24H19V22H21V20H19V15.874C20.7256 15.4299 22 13.8638 22 12Z" fill="white"/>
  <circle cx="18" cy="12" r="2" fill="#3B82F6"/>
  
  <!-- Hot indicator (flame) -->
  <path d="M9 18C9 16.5 10 15 11 14C11.5 15 12.5 15.5 13 17C13.2 17.8 13 18.5 12.5 19C12 19.5 11 19.8 10.5 19.5C9.5 19 9 18.5 9 18Z" fill="#EF4444"/>
  <path d="M11 14.5C11.2 15.2 11.8 15.5 12 16C12.2 16.5 12 17 11.7 17.3C11.4 17.6 10.8 17.7 10.5 17.5C10 17.2 10 16.5 10.2 16C10.4 15.5 10.7 15 11 14.5Z" fill="#FCD34D"/>
  
  <defs>
    <linearGradient id="gradient" x1="0" y1="0" x2="32" y2="32" gradientUnits="userSpaceOnUse">
      <stop offset="0%" stop-color="#3B82F6"/>
      <stop offset="100%" stop-color="#1D4ED8"/>
    </linearGradient>
  </defs>
</svg>
